<svg id="Capa_1" data-name="Capa 1" xmlns="http://www.w3.org/2000/svg" xmlns:xlink="http://www.w3.org/1999/xlink" viewBox="0 0 695.56 695.55"><defs><style>.cls-1{fill:#006389;opacity:0.5;}.cls-2{fill:url(#Degradado_sin_nombre_20);}.cls-3{fill:url(#Degradado_sin_nombre_22);}.cls-4{fill:#fff;}</style><linearGradient id="Degradado_sin_nombre_20" x1="347.44" y1="631.64" x2="348.36" y2="68.25" gradientUnits="userSpaceOnUse"><stop offset="0" stop-color="#a3a2a7"/><stop offset="0" stop-color="#9d9ea3"/><stop offset="0.03" stop-color="#7b8890"/><stop offset="0.05" stop-color="#5e747f"/><stop offset="0.08" stop-color="#466571"/><stop offset="0.11" stop-color="#345967"/><stop offset="0.14" stop-color="#285060"/><stop offset="0.19" stop-color="#204b5b"/><stop offset="0.3" stop-color="#1e4a5a"/><stop offset="0.47" stop-color="#15303f"/><stop offset="0.65" stop-color="#0e1b29"/><stop offset="0.82" stop-color="#090e1c"/><stop offset="0.98" stop-color="#080a17"/></linearGradient><linearGradient id="Degradado_sin_nombre_22" x1="349.41" y1="88.94" x2="349.18" y2="561.92" gradientUnits="userSpaceOnUse"><stop offset="0.05" stop-color="#a3a2a7"/><stop offset="0.06" stop-color="#989ba1"/><stop offset="0.11" stop-color="#73828b"/><stop offset="0.16" stop-color="#546e79"/><stop offset="0.21" stop-color="#3c5e6b"/><stop offset="0.27" stop-color="#2b5362"/><stop offset="0.33" stop-color="#214c5c"/><stop offset="0.4" stop-color="#1e4a5a"/><stop offset="0.54" stop-color="#15303f"/><stop offset="0.7" stop-color="#0e1b29"/><stop offset="0.84" stop-color="#090e1c"/><stop offset="0.98" stop-color="#080a17"/></linearGradient></defs><title>LogoContorno</title><path class="cls-1" d="M347.91,695.55C155.83,695.55.13,539.84.13,347.77S155.83,0,347.91,0,695.68,155.7,695.68,347.77,540,695.55,347.91,695.55" transform="translate(-0.13 0)"/><path class="cls-2" d="M66.2,347.77c0-155.57,126.14-281.7,281.7-281.7S629.6,192.2,629.6,347.77s-126.11,281.7-281.7,281.7S66.2,503.35,66.2,347.77" transform="translate(-0.13 0)"/><path class="cls-3" d="M112.79,351.25c0-130.61,105.88-236.49,236.49-236.49S585.77,220.64,585.77,351.25,479.88,587.74,349.28,587.74,112.79,481.86,112.79,351.25" transform="translate(-0.13 0)"/><path class="cls-4" d="M221.36,279.24a302.14,302.14,0,0,1,61-6.07q71.26,0,71.27,70.43,0,77.76-71.7,77.76a87.31,87.31,0,0,1-34.43-7.06V475H221.36Zm26.11,111.92a76.15,76.15,0,0,0,34.29,7.62q46.15,0,46.15-55.46,0-48.42-45.87-48.41a156.93,156.93,0,0,0-34.57,3.38Z" transform="translate(-0.13 0)"/><path class="cls-4" d="M384.87,414.3V391.72a170,170,0,0,0,52.78,8.47q35.43,0,35.43-21.17,0-19.75-24.7-19.76H427.21q-48,0-48-43.75,0-42.33,61.68-42.34a201.18,201.18,0,0,1,52.64,7.06v22.58a169.91,169.91,0,0,0-52.64-8.47q-37,0-37,21.17,0,19.77,23.29,19.76h21.17q50.81,0,50.8,43.75,0,42.35-61.53,42.34A201.19,201.19,0,0,1,384.87,414.3Z" transform="translate(-0.13 0)"/></svg>