<svg id="Capa_1" data-name="Capa 1" xmlns="http://www.w3.org/2000/svg" xmlns:xlink="http://www.w3.org/1999/xlink" viewBox="0 0 1610.5 999.17"><defs><style>.cls-1,.cls-6{fill:#006389;}.cls-1{opacity:0.5;}.cls-2{fill:url(#Degradado_sin_nombre_20);}.cls-3{fill:url(#Degradado_sin_nombre_22);}.cls-4{font-size:289.04px;fill:#fff;letter-spacing:-0.01em;}.cls-4,.cls-6{font-family:Sansation-Regular, Sansation;}.cls-5{letter-spacing:0em;}.cls-6{font-size:245.38px;}.cls-7{letter-spacing:-0.02em;}.cls-8{letter-spacing:-0.02em;}.cls-9{letter-spacing:-0.02em;}.cls-10{letter-spacing:-0.02em;}.cls-11{letter-spacing:-0.02em;}</style><linearGradient id="Degradado_sin_nombre_20" x1="934.44" y1="671.64" x2="935.36" y2="108.25" gradientUnits="userSpaceOnUse"><stop offset="0" stop-color="#a3a2a7"/><stop offset="0" stop-color="#9d9ea3"/><stop offset="0.03" stop-color="#7b8890"/><stop offset="0.05" stop-color="#5e747f"/><stop offset="0.08" stop-color="#466571"/><stop offset="0.11" stop-color="#345967"/><stop offset="0.14" stop-color="#285060"/><stop offset="0.19" stop-color="#204b5b"/><stop offset="0.3" stop-color="#1e4a5a"/><stop offset="0.47" stop-color="#15303f"/><stop offset="0.65" stop-color="#0e1b29"/><stop offset="0.82" stop-color="#090e1c"/><stop offset="0.98" stop-color="#080a17"/></linearGradient><linearGradient id="Degradado_sin_nombre_22" x1="936.41" y1="128.94" x2="936.18" y2="601.92" gradientUnits="userSpaceOnUse"><stop offset="0.05" stop-color="#a3a2a7"/><stop offset="0.06" stop-color="#989ba1"/><stop offset="0.11" stop-color="#73828b"/><stop offset="0.16" stop-color="#546e79"/><stop offset="0.21" stop-color="#3c5e6b"/><stop offset="0.27" stop-color="#2b5362"/><stop offset="0.33" stop-color="#214c5c"/><stop offset="0.4" stop-color="#1e4a5a"/><stop offset="0.54" stop-color="#15303f"/><stop offset="0.7" stop-color="#0e1b29"/><stop offset="0.84" stop-color="#090e1c"/><stop offset="0.98" stop-color="#080a17"/></linearGradient></defs><title>LogoPartsSistemas</title><path class="cls-1" d="M934.91,735.55c192.07,0,347.77-155.71,347.77-347.78S1127,40,934.91,40,587.13,195.7,587.13,387.77s155.7,347.78,347.78,347.78" transform="translate(-136.64 -40)"/><path class="cls-2" d="M653.2,387.77c0,155.58,126.14,281.7,281.7,281.7s281.7-126.12,281.7-281.7-126.11-281.7-281.7-281.7S653.2,232.2,653.2,387.77" transform="translate(-136.64 -40)"/><path class="cls-3" d="M699.79,391.25c0,130.61,105.88,236.49,236.49,236.49s236.49-105.88,236.49-236.49S1066.88,154.76,936.28,154.76,699.79,260.64,699.79,391.25" transform="translate(-136.64 -40)"/><text class="cls-4" transform="translate(650.55 421.36)">p<tspan class="cls-5" x="164.92" y="0">s</tspan></text><text class="cls-6" transform="translate(0 947.17)"><tspan class="cls-7">P</tspan><tspan class="cls-8" x="146.66" y="0">a</tspan><tspan class="cls-9" x="277.74" y="0">rts</tspan><tspan class="cls-8" x="551.3" y="0"> </tspan><tspan class="cls-7" x="606.3" y="0">S</tspan><tspan class="cls-10" x="756.2" y="0">i</tspan><tspan class="cls-11" x="814.19" y="0">ste</tspan><tspan class="cls-10" x="1142.27" y="0">ma</tspan><tspan x="1484.7" y="0">s</tspan></text></svg>