<svg id="Capa_1" data-name="Capa 1" xmlns="http://www.w3.org/2000/svg" viewBox="0 0 1578.15 173.73"><defs><style>.cls-1{fill:#006389;}</style></defs><title>TextoPartsSistemas</title><g id="Parts_Sistemas" data-name="Parts Sistemas"><path class="cls-1" d="M31,188.17V16.84H100.5Q153,16.84,153,62.72q0,50-71.77,61L76.66,105q52.71-7.78,52.71-41.34,0-28.51-30.91-28.51H53.17v153Z" transform="translate(-31.01 -15.64)"/><path class="cls-1" d="M169.28,150.19q0-38.7,51-38.7a228.05,228.05,0,0,1,32.83,2.39V102q0-21.67-33.91-21.68a140.28,140.28,0,0,0-39.77,6v-18a140.28,140.28,0,0,1,39.77-6q56.08,0,56.08,39.05v86.75H262.86l-7.67-12.46a72.7,72.7,0,0,1-41,12.46Q169.28,188.17,169.28,150.19Zm51-20.73q-28.87,0-28.87,20.37t22.76,20.37q23,0,38.94-12.22V131.86A226.64,226.64,0,0,0,220.32,129.46Z" transform="translate(-31.01 -15.64)"/><path class="cls-1" d="M306.35,188.17V62.37h15l3.95,16.05a55.07,55.07,0,0,1,39.78-16.05V80.82q-22.53,0-36.54,15.93v91.42Z" transform="translate(-31.01 -15.64)"/><path class="cls-1" d="M382.56,42h13.9l4.79,20.37h34v18H404.73v72.24q0,17.63,15.21,17.62h15.34v18H414.19q-31.62,0-31.63-33.91Z" transform="translate(-31.01 -15.64)"/><path class="cls-1" d="M457.58,182.18V163a144.46,144.46,0,0,0,44.81,7.19q30.06,0,30.07-18,0-16.77-21-16.77h-18q-40.74,0-40.74-37.14,0-35.94,52.36-35.94a170.32,170.32,0,0,1,44.69,6V87.53a143.85,143.85,0,0,0-44.69-7.19q-31.39,0-31.39,18,0,16.77,19.77,16.77h18q43.14,0,43.13,37.14,0,36-52.23,35.95A171.13,171.13,0,0,1,457.58,182.18Z" transform="translate(-31.01 -15.64)"/><path class="cls-1" d="M634.91,182.18V161.81a172.62,172.62,0,0,0,58.23,9.58q44.22,0,44.21-32.35,0-27.55-32.59-27.55h-22q-53.81,0-53.8-46.73,0-49.13,68.89-49.12a206.78,206.78,0,0,1,55.72,7.19V43.2a158.57,158.57,0,0,0-55.72-9.59q-46.72,0-46.72,31.15,0,27.55,31.63,27.56h22q54.76,0,54.76,46.72,0,50.33-66.38,50.33A225.52,225.52,0,0,1,634.91,182.18Z" transform="translate(-31.01 -15.64)"/><path class="cls-1" d="M809.37,16.84v21H787.21v-21Zm0,45.53v125.8H787.21V62.37Z" transform="translate(-31.01 -15.64)"/><path class="cls-1" d="M841.6,182.18V163a144.56,144.56,0,0,0,44.81,7.19q30.08,0,30.08-18,0-16.77-21-16.77h-18q-40.74,0-40.74-37.14,0-35.94,52.36-35.94a170.32,170.32,0,0,1,44.69,6V87.53a143.85,143.85,0,0,0-44.69-7.19q-31.39,0-31.39,18,0,16.77,19.77,16.77h18q43.14,0,43.13,37.14,0,36-52.24,35.95A171.24,171.24,0,0,1,841.6,182.18Z" transform="translate(-31.01 -15.64)"/><path class="cls-1" d="M963.94,42h13.9l4.79,20.37h34v18H986.11v72.24q0,17.63,15.22,17.62h15.33v18H995.57q-31.62,0-31.63-33.91Z" transform="translate(-31.01 -15.64)"/><path class="cls-1" d="M1092,62.37q53.68,0,53.68,53.07a130.7,130.7,0,0,1-1.08,16.18h-88.3q0,38.58,45.05,38.58,21.45,0,38.1-4.8v18q-16.65,4.78-40.5,4.79-64.82,0-64.82-64.34Q1034.16,62.36,1092,62.37Zm-35.7,50.8h68.05Q1123.66,80.1,1092,80.1,1058.49,80.1,1056.33,113.17Z" transform="translate(-31.01 -15.64)"/><path class="cls-1" d="M1170.88,188.17V62.37h15l3.71,15.81q18.09-15.81,39.42-15.81,27.32,0,37.26,17.25,20.49-17.25,41.58-17.25,43.37,0,43.37,47.8v78H1329V109q0-28.15-23.72-28.15-17.73,0-33.19,16.29v91.06H1250V109.33q0-28.51-23.49-28.51-18.69,0-33.43,16.29v91.06Z" transform="translate(-31.01 -15.64)"/><path class="cls-1" d="M1376.24,150.19q0-38.7,51-38.7a228,228,0,0,1,32.83,2.39V102q0-21.67-33.9-21.68a140.29,140.29,0,0,0-39.78,6v-18a140.29,140.29,0,0,1,39.78-6q56.07,0,56.07,39.05v86.75h-12.46l-7.67-12.46a72.7,72.7,0,0,1-41,12.46Q1376.25,188.17,1376.24,150.19Zm51-20.73q-28.87,0-28.87,20.37t22.76,20.37q23,0,38.94-12.22V131.86A226.54,226.54,0,0,0,1427.28,129.46Z" transform="translate(-31.01 -15.64)"/><path class="cls-1" d="M1512.11,182.18V163a144.56,144.56,0,0,0,44.81,7.19q30.07,0,30.08-18,0-16.77-21-16.77h-18q-40.74,0-40.74-37.14,0-35.94,52.36-35.94a170.38,170.38,0,0,1,44.69,6V87.53a143.9,143.9,0,0,0-44.69-7.19q-31.4,0-31.39,18,0,16.77,19.77,16.77h18q43.13,0,43.13,37.14,0,36-52.24,35.95A171.24,171.24,0,0,1,1512.11,182.18Z" transform="translate(-31.01 -15.64)"/></g></svg>